<?xml version="1.0" encoding="UTF-8" standalone="no"?>
<!DOCTYPE svg PUBLIC "-//W3C//DTD SVG 1.1//EN" "http://www.w3.org/Graphics/SVG/1.1/DTD/svg11.dtd">
<svg width="100%" height="100%" viewBox="0 0 2067 526" version="1.1" xmlns="http://www.w3.org/2000/svg" xmlns:xlink="http://www.w3.org/1999/xlink" xml:space="preserve" xmlns:serif="http://www.serif.com/" style="fill-rule:evenodd;clip-rule:evenodd;stroke-linejoin:round;stroke-miterlimit:2;">
    <g transform="matrix(0.75,0,0,0.75,0,0)">
        <g id="white" transform="matrix(1.1937,0,0,1.1937,-536.166,-1440.07)">
            <g id="mic" transform="matrix(1.43349,-0.513667,0.513667,1.43349,2168.57,1317.98)">
                <g transform="matrix(1,0,0,1,250,293.444)">
                    <path d="M0,1.976c-27.249,-0 -52.329,-20.735 -52.329,-50.357l-16.787,0c0,33.719 26.853,61.561 59.242,66.349l-0,32.389l19.748,-0l-0,-32.389c32.389,-4.788 59.242,-32.63 59.242,-66.349l-16.787,0c-0,29.622 -25.031,50.357 -52.329,50.357" style="fill:white;fill-rule:nonzero;"/>
                </g>
                <g transform="matrix(1,0,0,1,248.134,187.779)">
                    <path d="M0,-97.14c-1.018,-0.016 -1.448,0.186 -1.438,1.32c0.047,5.553 0.041,11.109 -0.005,16.66c-0.009,1.043 0.285,1.439 1.368,1.443c3.488,0.015 6.967,0.265 10.403,0.843c22.479,3.781 40.218,15.067 52.987,33.935c8.405,12.423 12.637,26.265 12.929,41.276c0.025,1.276 0.384,1.679 1.667,1.636c2.665,-0.097 5.336,-0.029 8.003,-0.031c2.776,0 5.558,-0.051 8.33,0.024c1.158,0.029 1.452,-0.335 1.426,-1.48c-0.183,-8.251 -1.29,-16.362 -3.487,-24.317c-11.436,-41.319 -48.713,-70.614 -92.183,-71.309" style="fill:rgb(254,151,1);"/>
                </g>
                <g transform="matrix(1,0,0,1,276.309,180.469)">
                    <path d="M0,-49.782c-8.754,-4.729 -18.213,-7.061 -28.184,-7.205c-0.785,-0.014 -1.457,-0.127 -1.443,1.105c0.062,5.498 0.042,10.999 0.007,16.502c-0.007,0.956 0.361,1.145 1.252,1.169c3.382,0.083 6.724,0.535 10.004,1.386c19.632,5.106 33.479,22.288 34.26,42.571c0.046,1.211 0.333,1.586 1.557,1.542c2.615,-0.091 5.23,-0.028 7.844,-0.028l0,-0.005c2.724,0 5.448,-0.028 8.17,0.018c0.91,0.013 1.221,-0.265 1.221,-1.203c0.002,-2.35 -0.14,-4.692 -0.491,-7.002c-3.325,-21.924 -14.673,-38.303 -34.197,-48.85" style="fill:rgb(254,151,1);"/>
                </g>
                <g transform="matrix(0.83012,0.297461,-0.297461,0.83012,-1448.66,-1797.2)">
                    <path d="M2606.02,1562.06c17.448,-6.253 26.44,-25.47 20.188,-42.918l-22.56,-63.282c-6.271,-17.5 -25.454,-26.562 -42.954,-20.291c-17.448,6.252 -26.562,25.453 -20.291,42.954l22.663,63.245c6.252,17.448 25.506,26.544 42.954,20.292Zm-28.265,-78.61c-7.824,2.834 -11.834,11.447 -8.987,19.32c2.853,7.89 11.333,11.853 19.266,8.999c7.856,-2.824 11.907,-11.447 9.061,-19.28c-2.829,-7.791 -11.543,-11.862 -19.34,-9.039Z" style="fill:white;"/>
                </g>
            </g>
            <g id="logotype" transform="matrix(1,0,0,1,104.743,-4.54747e-13)">
                <path d="M1725.09,1747.78c0.314,-32.672 -14.748,-46.809 -24.79,-52.149c3.138,-8.797 6.276,-21.991 6.59,-36.442c0.941,-31.416 -13.493,-45.553 -39.565,-45.553c-17.593,0 -39.898,9.739 -35.814,45.239c2.514,18.535 32.672,16.65 32.044,-1.571c-0.314,-4.084 -0.942,-10.367 5.341,-10.996c4.712,-0.314 5.655,10.053 5.655,15.708c-0,10.681 -5.341,27.646 -10.996,32.986c-23.876,8.168 -34.243,32.986 -29.844,59.375c5.026,31.7 27.017,39.23 45.866,39.23c26.058,0 45.2,-16.942 45.513,-45.827Zm-653.755,0c0.315,-32.672 -14.748,-46.809 -24.79,-52.149c3.138,-8.797 6.276,-21.991 6.59,-36.442c0.942,-31.416 -13.493,-45.553 -39.565,-45.553c-17.592,0 -39.897,9.739 -35.813,45.239c2.513,18.535 32.672,16.65 32.043,-1.571c-0.314,-4.084 -0.942,-10.367 5.341,-10.996c4.712,-0.314 5.655,10.053 5.655,15.708c-0,10.681 -5.341,27.646 -10.996,32.986c-23.875,8.168 -34.242,32.986 -29.844,59.375c5.026,31.7 27.017,39.23 45.866,39.23c26.058,0 45.2,-16.942 45.513,-45.827Zm549.476,-53.442c-4.084,-32.642 -37.699,-21.649 -34.243,-0c2.827,19.799 -6.283,29.857 -18.535,29.229c-6.283,-0.315 -15.394,-4.087 -18.535,-6.287c7.539,-7.544 16.65,-20.118 19.163,-36.434c6.597,-39.287 -17.279,-69.095 -59.375,-69.095c-33.3,0 -57.176,12.236 -57.805,37.988c-0.314,14.788 30.473,16.047 32.987,2.832c0.942,-5.663 8.168,-12.898 25.446,-12.585c20.734,0.629 27.96,20.766 24.504,35.526c-2.199,9.099 -6.597,14.119 -10.995,18.826c-12.252,-12.237 -24.818,-26.983 -54.349,-28.552c-38.641,-2.203 -54.034,22.59 -51.207,44.578c4.398,29.863 37.07,44.637 60.003,41.493c2.2,0 -14.451,13.513 -20.42,15.709c-15.393,6.274 -13.194,24.156 2.199,24.156l125.034,0c9.424,0 11.309,-13.803 10.995,-15.999l-2.513,-22.923c13.509,-4.4 32.044,-24.832 27.646,-58.462Zm-66.915,68.521l-46.181,0c7.854,-5.343 16.336,-12.888 20.42,-16.031c7.226,5.029 13.823,8.173 25.761,9.43l-0,6.601Zm136.99,-19.163c0,10.367 -3.769,17.907 -11.309,17.907c-10.053,-0 -13.509,-8.482 -13.823,-15.079c-0.314,-9.739 3.77,-21.677 15.08,-23.876c7.853,5.026 10.052,11.938 10.052,21.048Zm-653.754,0c-0,10.367 -3.77,17.907 -11.31,17.907c-10.053,-0 -13.508,-8.482 -13.822,-15.079c-0.315,-9.739 3.769,-21.677 15.079,-23.876c7.854,5.026 10.053,11.938 10.053,21.048Zm810.478,-89.253c0.314,-21.355 -14.748,-41.749 -48.667,-41.749c-39.912,-0 -64.075,26.983 -64.075,69.723c0,49.641 26.673,70.35 64.704,70.35c23.562,0 42.076,-16.63 45.842,-27.927c6.594,-22.935 -20.083,-36.451 -32.322,-13.82c-1.572,3.457 -9.433,8.486 -15.092,8.486c-23.269,0 -27.985,-23.259 -28.614,-38.346c-0.628,-20.745 10.062,-38.032 30.186,-38.032c11.319,-0 12.577,9.114 12.577,12.258c0,6.915 -11.32,13.83 -17.608,5.972c-9.748,-12.259 -26.724,4.714 -20.439,16.658c4.402,8.801 15.093,14.459 27.356,14.459c23.873,0 45.525,-12.887 46.152,-38.032Zm598.464,30.821c-0.942,-25.761 -18.202,-57.805 -53.698,-66.287c2.201,-3.77 5.66,-7.854 7.547,-9.739c13.827,-10.681 2.83,-38.641 -22.642,-22.305c-11.626,7.54 -18.53,21.677 -23.238,31.102c-73.803,0.942 -71.918,100.843 -99.564,100.843c-27.331,-0 -19.792,-37.699 -12.566,-50.893c8.168,-14.451 -27.96,-32.358 -36.756,-6.911c-14.137,41.154 -5.341,91.379 49.95,91.379c60.318,0 58.119,-88.238 82.932,-96.406c-2.511,8.796 -4.708,20.42 -4.708,30.159c0,43.655 21.654,64.362 55.586,64.362c46.801,0 57.785,-35.774 57.157,-65.304Zm-1218.92,23.862c8.796,-54.971 -15.708,-93.605 -66.897,-94.233c-32.651,-0.314 -69.721,14.433 -77.261,60.921c-4.712,29.223 0.943,76.011 48.066,76.011c20.722,-0 45.827,-13.178 45.827,-48.675c0,-33.298 -21.339,-47.103 -41.429,-47.103l-3.77,0c9.11,-8.199 20.721,-9.46 29.194,-9.46c27.001,-0 37.053,31.109 28.885,55.934c-8.168,26.4 32.673,35.185 37.385,6.605Zm-737.006,29.521c-0.628,-6.275 -1.885,-38.001 -2.199,-43.973c-0.313,-21.375 -32.007,-23.575 -33.89,-1.886c-0.314,3.457 0,24.203 0,24.203c0,3.143 -2.199,4.4 -4.713,4.4l-24.203,0c13.516,-10.372 28.289,-27.66 30.171,-52.178c3.138,-36.118 -24.827,-50.864 -48.087,-50.864c-20.117,-0 -62.807,4.706 -62.807,61.866c0,27.032 34.518,22.945 33.89,1.571c-0.627,-27.032 14.772,-32.061 24.516,-32.689c10.687,-0.628 16.659,11.944 15.716,20.745c-2.829,21.06 -39.29,48.092 -52.156,45.577c-17.573,-3.143 -18.2,36.406 -4.079,36.406l117.484,-0c6.589,-0 10.671,-7.53 10.357,-13.178Zm917.959,-8.471c-2.199,-15.075 -11.624,-94.235 -11.624,-94.235c-2.513,-20.42 -41.783,-16.964 -38.641,5.969l10.053,69.417c-0,-0 3.141,10.064 -8.168,10.064l-35.5,0c2.828,-4.717 4.084,-10.379 4.713,-14.782c4.084,-28.284 -16.965,-49.305 -40.84,-49.305c-28.89,-0 -51.482,12.55 -51.482,52.45c-0,21.991 32.005,17.598 32.947,4.403c0.942,-20.758 5.34,-27.674 16.336,-26.733c8.796,0.628 9.738,11.007 9.11,17.612c-0.314,5.976 -3.456,12.896 -8.168,13.21c-20.417,0.944 -11.624,33.579 3.456,33.579l103.671,-0c15.707,-0 15.079,-16.001 14.137,-21.649Zm672.289,4.079c-4.084,-21.313 -3.769,-68.557 -5.34,-82.015c-2.513,-19.456 -41.154,-14.435 -38.955,3.759c1.57,14.08 2.827,53.502 2.827,53.502c1.571,6.57 -0.942,11.576 -10.367,11.576l-20.404,0c6.904,-9.073 13.494,-22.527 15.063,-42.238c1.885,-38.21 -18.515,-61.119 -58.393,-60.176c-12.88,0.314 -21.048,5.021 -26.389,10.355c-11.624,-11.926 -39.269,-13.183 -60.946,-0.627c-30.787,17.887 -22.619,67.969 -13.509,84.551c9.739,17.862 42.097,10.018 33.615,-9.073c-10.053,-21.275 -9.739,-38.171 -2.199,-47.557c5.026,-6.896 16.65,-5.955 21.362,-0.626c4.084,5.006 3.142,37.232 3.142,41.613c-0,13.453 32.358,17.208 35.499,3.441c3.456,-15.018 -5.654,-46.305 12.881,-47.245c13.194,-0.941 17.906,8.136 16.964,25.344c-1.571,22.84 -22.933,39.422 -41.468,40.361c-27.332,0.626 -16.651,32.625 -1.571,32.625l123.423,-0c8.168,-0 16.336,-9.726 14.765,-17.57Zm-1113.36,-37.368c15.08,-99.272 -94.874,-101.786 -117.179,-72.884c-24.818,-6.911 -56.855,-1.57 -67.839,10.368c-8.159,-8.797 -33.939,-14.137 -46.806,-15.08c-22.291,-1.571 -35.813,0.628 -49.335,5.341c-24.497,-7.54 -52.472,-2.199 -65.652,7.854c-8.787,-9.425 -30.799,-13.195 -45.552,-13.195c-41.795,0 -76.315,23.562 -76.315,73.826c-0,44.903 24.791,55.884 46.793,55.884c19.166,0 45.222,-10.981 45.222,-45.831c0,-30.473 -24.173,-38.955 -37.04,-38.955c-1.57,0 -6.293,-0.314 -9.127,1.571c3.149,-10.995 16.659,-18.221 30.153,-16.65c16.014,1.885 22.643,16.022 22.643,26.703l-0,39.583c-0,22.598 37.033,25.108 37.033,-1.256l-0,-32.358c-0,-11.624 5.376,-21.991 16.362,-25.761c-8.473,9.111 -10.67,20.42 -10.67,35.814c-0,24.19 11.611,59.964 56.527,59.964c49.314,-0 60.617,-35.774 59.985,-62.477c-0.628,-14.452 -6.277,-26.704 -14.437,-35.5c11.926,0.943 20.759,13.195 20.759,21.991l0,39.583c0,22.598 36.717,25.108 36.717,-1.256l-0,-34.243c-0,-11.31 6.283,-22.933 16.336,-25.132c-6.597,4.712 -11.31,23.875 -10.681,37.07c0.628,24.19 11.938,59.964 56.547,59.964c49.323,-0 60.946,-35.774 60.004,-62.477c-0.628,-18.221 -9.425,-36.757 -22.619,-45.239c10.995,0.314 36.756,14.137 29.844,51.522c-4.712,24.189 33.301,33.29 38.327,1.256Zm1223.02,-11.034c5.969,-51.816 -28.588,-66.876 -53.406,-66.876c-28.903,-0 -46.495,15.374 -50.893,40.172c-4.399,25.447 28.902,28.903 32.357,5.969c1.885,-12.88 15.08,-13.822 18.85,-13.822c6.283,-0 23.875,4.398 18.221,34.557c-3.456,18.849 -25.761,35.813 -44.924,33.3c-28.903,-4.084 -35.5,30.473 -4.084,32.044c21.362,1.256 77.282,-7.854 83.879,-65.344Zm-1309.41,4.437c1.571,11.31 -2.828,29.53 -19.478,29.53c-16.336,0 -18.849,-22.933 -18.535,-28.273c1.257,-10.368 4.398,-27.96 16.336,-32.044c13.509,2.827 20.734,19.792 21.677,30.787Zm-164.579,-2.199c0,14.137 -0.314,31.729 -19.496,31.729c-18.867,0 -20.439,-22.933 -20.439,-30.787c-0,-7.539 4.716,-27.959 17.294,-30.787c14.78,1.257 22.641,20.42 22.641,29.845Zm1692.98,0.628c1.256,16.336 -5.031,31.101 -18.239,31.101c-9.433,0 -19.496,-7.539 -21.069,-31.101c-0.941,-12.252 3.145,-28.274 7.862,-38.327c11.95,0 30.503,17.907 31.446,38.327Zm-1269.18,15.689c0,6.919 -3.141,15.097 -11.623,15.097c-7.54,-0 -11.31,-7.549 -11.624,-14.783c-0.943,-11.322 5.34,-16.983 12.252,-16.983c8.482,-0 10.995,10.379 10.995,16.669Zm-587.782,2.218c-0,9.11 -4.408,11.624 -7.242,11.624c-3.779,-0 -8.502,-2.828 -8.502,-9.739c-0,-9.739 2.204,-13.823 7.872,-13.823c5.353,0 7.872,3.77 7.872,11.938Zm943.385,9.082c-12.88,5.658 -41.154,1.572 -41.154,-9.744c-0,-6.287 4.712,-9.116 13.194,-8.802c11.624,0.314 21.991,11.316 27.96,18.546Zm-535.781,-271.683c1.35,-92.304 -67.003,-109.864 -103.008,-108.063c-22.503,-28.78 -58.508,-35.074 -85.962,-35.074c-36.905,0 -67.51,16.633 -81.462,47.231c-7.651,-12.157 -36.005,-19.809 -45.906,-16.209c-14.852,-38.664 -54.007,-50.803 -93.163,-49.453c-23.403,0.45 -90.462,14.835 -107.565,89.976c-9.451,38.723 -2.7,47.728 -2.7,61.236c0.9,22.512 46.806,35.547 50.857,-3.602c0.45,-8.555 -3.151,-24.765 4.5,-52.231c10.802,-36.921 42.306,-47.728 54.008,-48.178c10.801,-0.899 26.104,0.45 31.054,8.555c-40.505,0.45 -70.209,30.618 -75.16,70.241c-5.851,45.927 22.053,91.327 78.761,91.327c43.206,0 73.36,-23.373 71.11,-60.709c-0.9,-11.257 -5.851,-22.964 -14.402,-29.717c9.451,-6.754 12.151,-23.864 9.901,-30.168c8.551,3.152 20.253,20.262 19.353,50.429c-1.35,47.242 56.258,49.939 52.207,-3.152c-2.7,-35.57 12.602,-76.094 46.807,-80.596c12.601,-1.351 17.102,2.701 20.252,4.502c-63.909,8.105 -70.209,98.157 -25.203,123.791c27.004,15.732 80.111,17.08 103.964,-26.984c7.201,-13.058 11.252,-38.723 7.201,-56.733c22.953,2.701 31.505,29.717 31.055,50.879c-0.901,44.524 -41.406,82.762 -103.965,59.809c-27.454,-9.441 -45.456,38.255 -5.851,48.156c90.013,23.404 162.418,-28.354 163.317,-105.263Zm451.413,43.171c-0.901,-8.99 -2.251,-54.538 -2.701,-63.134c-0.899,-30.764 -46.304,-33.479 -49.001,-2.714c-0.449,4.976 0,34.833 0,34.833c0,4.495 -3.151,6.743 -6.754,6.743l-34.222,-0c19.362,-15.336 40.527,-40.219 43.224,-75.508c4.046,-51.878 -36.02,-73.004 -68.891,-73.004c-18.012,-0 -46.822,2.248 -67.052,22.025c-24.276,-22.925 -62.082,-26.976 -89.085,-17.979c-45.007,-31.5 -182.726,-25.199 -160.673,105.152c7.651,46.056 58.508,28.502 51.757,-3.62c-12.601,-59.719 36.456,-77.26 54.908,-74.563c-20.703,10.787 -40.055,34.298 -45.456,64.61c-6.751,36.646 9.451,89.744 72.46,89.744c51.307,0 82.811,-35.06 81.011,-82.053c-0.45,-20.358 -5.851,-39.36 -14.852,-53.837c17.553,-0.453 27.901,19.454 27.002,42.979c-1.798,33.932 50.804,39.813 48.102,-1.357c-2.247,-38.908 21.164,-46.147 35.574,-47.051c15.31,-0.899 23.865,17.192 22.064,29.859c-3.602,30.312 -56.287,69.209 -74.72,65.601c-25.175,-4.524 -25.625,52.16 -5.845,52.16l168.312,0c9.89,0 15.738,-10.795 14.838,-18.886Zm440.611,-6.293c-2.251,-22.474 -7.201,-97.791 -7.201,-128.287c-0,-38.21 -53.507,-34.164 -53.507,1.798c-0,21.525 4.502,87.421 4.053,91.007c-0.45,3.586 -0,10.311 -7.225,10.311l-17.568,-0c10.341,-12.104 13.038,-38.552 13.038,-60.965c0,-50.692 -39.563,-85.306 -92.656,-85.306c-15.753,0 -52.208,-1.8 -81.012,31.018c-20.703,23.805 -27.453,60.564 -21.603,95.529c6.301,39.951 57.158,29.612 50.407,-2.69c-4.5,-20.172 -1.8,-44.827 8.552,-58.275c10.801,-14.793 22.953,-18.831 44.556,-18.831c22.053,0 37.355,22.417 37.355,40.348c-0,28.241 -15.752,59.172 -30.154,59.172c-23.854,-0 -23.403,44.049 2.25,44.049l133.173,0c9.442,0 18.892,-8.09 17.542,-18.878Zm-279.011,-75.635c8.551,-74.231 -40.956,-95.807 -76.511,-95.807c-41.405,0 -66.609,22.025 -72.91,57.552c-6.301,36.455 41.406,41.406 46.357,8.551c2.7,-18.452 21.603,-19.803 27.004,-19.803c9.001,0 34.204,6.301 26.103,49.507c-4.951,27.004 -36.905,51.307 -64.359,47.707c-41.406,-5.851 -50.857,43.656 -5.851,45.906c30.605,1.8 110.716,-11.251 120.167,-93.613Zm779.03,-5.794c-1.35,-35.555 -27.003,-78.311 -76.96,-90.013c3.6,-5.401 7.651,-11.701 11.251,-13.952c19.353,-15.752 1.35,-55.357 -35.105,-31.954c-16.641,10.351 -26.082,27.904 -32.826,40.955c-14.836,-1.35 -60.28,-2.7 -92.235,10.352c-45.456,-31.955 -184.075,-23.853 -162.022,107.115c8.551,46.339 59.858,28.804 53.107,-3.601c-12.602,-60.308 31.054,-76.96 49.957,-74.26c-22.503,9.901 -36.005,34.205 -40.506,64.359c-6.301,39.605 12.602,90.406 73.811,90.406c53.107,0 82.811,-30.565 82.811,-82.755c0,-22.503 -8.101,-46.807 -17.102,-61.659c12.151,-5.4 27.902,-3.15 35.095,-3.15c-4.945,16.202 -8.992,40.506 -8.992,56.708c0,62.539 36.416,89.508 80.055,89.508c69.31,-0 81.011,-53.053 79.661,-98.059Zm-403.228,-40.112c7.651,-59.408 7.201,-152.066 -63.909,-152.965c-31.054,-0.45 -80.111,23.375 -52.207,94.007c9.001,23.403 55.358,15.302 42.306,-18.903c-5.851,-14.402 -1.35,-28.353 9.901,-28.353c22.954,0 19.353,62.108 13.052,101.713c-4.95,29.704 -12.601,72.46 -15.302,89.563c-4.5,29.254 36.905,38.705 47.707,11.701c5.851,-15.302 11.701,-45.006 18.452,-96.763Zm-810.084,57.914c1.35,8.143 3.6,38.905 -28.804,38.905c-15.302,0 -26.554,-17.641 -22.053,-41.62c2.25,-14.477 14.852,-33.478 34.655,-38.907c9.451,8.595 14.402,29.859 16.202,41.622Zm989.237,-2.5c0.901,13.052 -2.25,40.055 -27.453,40.055c-17.553,0 -27.004,-17.102 -22.954,-41.405c3.151,-15.753 13.952,-36.906 36.005,-40.956c8.552,9.001 13.052,29.704 14.402,42.306Zm-1526.16,24.746c3.601,10.806 -8.101,15.309 -15.752,15.309c-27.454,-0 -31.954,-27.466 -28.804,-44.126c3.15,-15.309 18.903,-32.869 41.856,-30.617c-1.35,7.204 -8.551,11.256 -17.553,13.958c-18.452,5.403 -6.751,55.832 14.402,44.125c3.151,-2.251 5.401,0 5.851,1.351Zm1697.58,-34.198c2.25,23.854 -5.401,48.157 -26.554,48.157c-12.151,0 -25.653,-9.001 -27.904,-42.306c-1.348,-18.002 2.251,-41.856 8.552,-56.708c20.252,0 43.206,22.954 45.906,50.857Zm-1477.5,10.784c-5.851,20.713 -25.204,26.116 -31.955,20.262c-9.901,-8.555 -6.3,-25.214 0,-35.12c6.751,-10.806 18.453,-17.11 28.804,-18.011c5.401,6.754 6.751,20.712 3.151,32.869Z" style="fill:white;fill-rule:nonzero;"/>
            </g>
        </g>
    </g>
</svg>
